<?xml version="1.0" standalone="no"?>
<!DOCTYPE svg PUBLIC "-//W3C//DTD SVG 20010904//EN"
 "http://www.w3.org/TR/2001/REC-SVG-20010904/DTD/svg10.dtd">
<svg version="1.0" xmlns="http://www.w3.org/2000/svg"
 width="512.000000pt" height="512.000000pt" viewBox="0 0 512.000000 512.000000"
 preserveAspectRatio="xMidYMid meet">

<g transform="translate(0.000000,512.000000) scale(0.100000,-0.100000)"
fill="#000000" stroke="none">
<path d="M1943 5107 c-27 -15 -79 -80 -106 -132 -62 -122 -62 -278 0 -400 12
-22 46 -71 76 -109 98 -122 104 -226 20 -336 -38 -50 -48 -79 -39 -115 20 -78
115 -98 173 -37 105 110 148 283 107 423 -23 75 -44 114 -107 193 -30 37 -60
85 -66 106 -23 79 -10 158 39 220 15 19 32 45 38 57 45 83 -52 176 -135 130z"/>
<path d="M1321 4794 c-17 -14 -44 -54 -62 -89 -58 -119 -48 -252 27 -351 88
-115 94 -149 39 -234 -19 -30 -35 -65 -35 -78 0 -55 48 -103 103 -102 74 2
155 122 165 245 8 100 -17 163 -114 295 -35 48 -30 110 16 173 28 39 32 52 27
84 -13 79 -103 110 -166 57z"/>
<path d="M2521 4794 c-17 -14 -44 -54 -62 -89 -58 -119 -48 -252 27 -351 88
-115 94 -149 39 -234 -19 -30 -35 -65 -35 -78 0 -55 48 -103 103 -102 74 2
155 122 165 245 7 98 -24 182 -110 288 -37 46 -32 119 11 179 29 40 33 53 28
85 -13 79 -103 110 -166 57z"/>
<path d="M319 3685 c-14 -8 -32 -27 -38 -43 -9 -21 -11 -266 -8 -988 3 -939 4
-961 24 -1049 85 -357 280 -645 568 -838 l40 -27 -377 0 c-405 0 -418 -1 -444
-51 -31 -62 -6 -212 58 -339 73 -145 203 -257 370 -318 l73 -27 1472 -3 c1649
-3 1550 -7 1702 70 147 74 273 222 321 377 27 87 36 192 20 231 -25 60 -22 60
-546 60 l-477 0 69 49 c147 103 284 252 375 406 25 43 49 73 56 71 7 -3 45
-12 85 -20 230 -46 462 -22 693 75 296 123 556 420 649 740 191 661 -239 1347
-919 1465 -63 11 -133 15 -232 12 l-143 -3 0 42 c0 23 -5 54 -12 68 -25 56
-15 55 -673 55 -658 0 -648 1 -673 -55 -15 -33 -15 -57 0 -90 25 -55 21 -55
613 -55 l545 0 0 -852 c0 -936 -1 -954 -60 -1130 -57 -169 -147 -315 -275
-443 -173 -172 -385 -281 -625 -320 -138 -22 -982 -22 -1120 0 -239 39 -455
150 -625 320 -126 125 -219 276 -275 443 -59 176 -60 194 -60 1130 l0 852 545
0 c400 0 551 3 570 12 29 13 55 55 55 88 0 33 -26 75 -55 88 -41 19 -1231 16
-1266 -3z m3834 -379 c312 -93 555 -329 650 -631 109 -345 17 -718 -238 -971
-162 -161 -350 -250 -582 -275 -92 -11 -125 -10 -222 4 -63 9 -115 18 -116 19
-1 2 9 52 24 111 l26 108 40 -8 c22 -4 99 -8 170 -7 113 0 141 4 210 27 195
65 360 212 444 399 162 357 12 781 -339 958 -104 53 -194 74 -315 75 -60 0
-129 -3 -152 -8 l-43 -7 0 114 0 115 28 4 c15 3 95 4 177 2 128 -2 163 -6 238
-29z m-144 -401 c135 -32 255 -118 332 -238 136 -211 98 -502 -88 -675 -66
-61 -169 -116 -250 -132 -65 -14 -222 -8 -265 9 l-28 11 0 504 0 505 38 10
c68 17 77 19 137 20 33 0 89 -6 124 -14z m-119 -2395 c-40 -140 -180 -267
-328 -299 -75 -16 -2869 -16 -2944 0 -148 32 -288 159 -328 299 l-9 30 1809 0
1809 0 -9 -30z"/>
<path d="M1941 3686 c-87 -48 -50 -186 49 -186 51 0 100 49 100 99 0 75 -83
124 -149 87z"/>
</g>
</svg>
